<svg width="434" height="205" viewBox="0 0 434 205" fill="none" xmlns="http://www.w3.org/2000/svg">
<g id="logo">
<g id="set">
<g id="esbuild-logo">
<path id="Vector" d="M98 178C139.421 178 173 144.421 173 103C173 61.5786 139.421 28 98 28C56.5786 28 23 61.5786 23 103C23 144.421 56.5786 178 98 178Z" fill="#FFCF00"/>
<path id="Vector_2" d="M58.625 67.375L94.25 103L58.625 138.625M103.625 67.375L139.25 103L103.625 138.625" stroke="#191919" stroke-width="18"/>
</g>
<g id="react-logo">
<path id="Vector_3" d="M381.606 76.6282C379.812 76.0125 378.004 75.4408 376.182 74.9131C376.485 73.6817 376.766 72.4454 377.025 71.2042C381.129 51.2673 378.447 35.2005 369.27 29.9084C360.474 24.8362 346.093 30.1283 331.565 42.7721C330.134 44.0182 328.736 45.3009 327.373 46.6202C326.459 45.7407 325.531 44.8806 324.587 44.0402C309.356 30.5314 294.088 24.8435 284.926 30.1356C276.152 35.2225 273.55 50.3291 277.23 69.2252C277.606 71.0967 278.022 72.9585 278.476 74.8105C276.328 75.4262 274.239 76.0785 272.246 76.7748C254.398 83.0051 243 92.7537 243 102.869C243 113.314 255.241 123.795 273.829 130.135C275.334 130.653 276.854 131.132 278.388 131.572C277.89 133.561 277.45 135.564 277.069 137.582C273.536 156.149 276.292 170.896 285.058 175.954C294.103 181.173 309.29 175.807 324.089 162.877C325.262 161.861 326.435 160.781 327.607 159.638C329.083 161.069 330.598 162.457 332.152 163.801C346.489 176.13 360.635 181.099 369.387 176.042C378.439 170.801 381.378 154.961 377.56 135.691C377.266 134.225 376.929 132.725 376.548 131.191C377.613 130.878 378.659 130.553 379.685 130.216C399.014 123.81 411.584 113.453 411.584 102.869C411.584 92.7097 399.82 82.8952 381.606 76.6282V76.6282ZM336.308 48.2108C348.754 37.3774 360.386 33.1115 365.7 36.1607C371.344 39.4151 373.528 52.5427 369.981 69.7603C369.751 70.8842 369.499 72.0007 369.226 73.11C361.797 71.4261 354.265 70.2361 346.679 69.5477C342.333 63.3041 337.57 57.3609 332.423 51.7584C333.684 50.5465 334.974 49.364 336.293 48.2108H336.308ZM292.769 111.496C294.299 114.447 295.894 117.355 297.555 120.218C299.251 123.15 301.015 126.041 302.847 128.889C297.629 128.325 292.442 127.493 287.308 126.397C288.804 121.582 290.636 116.575 292.776 111.503L292.769 111.496ZM292.769 94.5641C290.673 89.5946 288.884 84.7056 287.418 79.9779C292.219 78.9005 297.35 78.0209 302.694 77.3539C300.905 80.1392 299.183 82.9734 297.526 85.8564C295.865 88.7199 294.277 91.6225 292.762 94.5641H292.769ZM296.595 103.037C298.814 98.4196 301.208 93.8898 303.778 89.448C306.329 85.0013 309.051 80.6645 311.944 76.4377C316.957 76.0565 322.095 75.8513 327.292 75.8513C332.511 75.8513 337.656 76.0565 342.67 76.4377C345.529 80.6645 348.236 84.989 350.791 89.4113C353.362 93.8385 355.785 98.3463 358.062 102.935C355.815 107.567 353.401 112.116 350.821 116.583C348.265 121.02 345.568 125.369 342.729 129.63C337.73 129.996 332.562 130.172 327.292 130.172C322.044 130.172 316.943 130.011 312.032 129.688C309.119 125.437 306.373 121.081 303.793 116.619C301.223 112.173 298.823 107.643 296.595 103.03V103.037ZM357.066 120.189C358.756 117.242 360.384 114.262 361.947 111.247C364.089 116.091 365.978 121.042 367.606 126.082C362.415 127.247 357.167 128.14 351.883 128.757C353.662 125.933 355.387 123.074 357.058 120.182L357.066 120.189ZM361.874 94.5715C360.32 91.62 358.707 88.6979 357.036 85.8051C355.385 82.9612 353.674 80.1514 351.905 77.3759C357.278 78.0575 362.431 78.9591 367.276 80.0659C365.72 84.9913 363.917 89.8351 361.874 94.5788V94.5715ZM327.365 56.9259C330.873 60.7484 334.186 64.7458 337.29 68.9027C330.654 68.5851 324.013 68.5851 317.368 68.9027C320.644 64.5781 324.001 60.5614 327.373 56.9259H327.365ZM288.547 36.3659C294.191 33.1042 306.652 37.7586 319.801 49.4349C320.644 50.1825 321.487 50.9594 322.33 51.7657C317.153 57.369 312.354 63.3094 307.964 69.5477C300.4 70.2267 292.889 71.3946 285.476 73.044C285.046 71.3239 284.66 69.5892 284.318 67.8399V67.8545C281.144 51.6558 283.248 39.4444 288.547 36.3806V36.3659ZM280.308 124.638C278.916 124.237 277.533 123.805 276.16 123.341C269.016 121.094 262.347 117.55 256.487 112.889C254.81 111.736 253.387 110.251 252.306 108.526C251.226 106.802 250.511 104.874 250.205 102.861C250.205 96.7264 259.353 88.8982 274.613 83.5842C276.534 82.9098 278.469 82.299 280.418 81.7517C282.683 89.0201 285.425 96.1308 288.628 103.037C285.385 110.044 282.608 117.258 280.316 124.631L280.308 124.638ZM319.347 157.475C313.832 162.533 307.435 166.534 300.473 169.276C298.639 170.156 296.644 170.649 294.612 170.728C292.58 170.806 290.553 170.467 288.657 169.731C283.343 166.652 281.129 154.822 284.142 138.946C284.504 137.065 284.914 135.198 285.373 133.346C292.864 134.953 300.456 136.05 308.096 136.63C312.522 142.902 317.355 148.876 322.564 154.514C321.519 155.526 320.449 156.51 319.354 157.468L319.347 157.475ZM327.571 149.325C324.155 145.645 320.754 141.57 317.426 137.187C320.651 137.314 323.94 137.377 327.292 137.377C330.727 137.377 334.119 137.304 337.466 137.157C334.377 141.379 331.075 145.441 327.571 149.325V149.325ZM371.307 159.345C371.152 161.374 370.582 163.35 369.633 165.15C368.684 166.951 367.375 168.537 365.788 169.811C360.474 172.89 349.113 168.888 336.858 158.348C335.455 157.146 334.043 155.86 332.621 154.492C337.73 148.836 342.451 142.841 346.753 136.549C354.435 135.901 362.064 134.726 369.585 133.031C369.927 134.418 370.23 135.777 370.494 137.106C372.125 144.409 372.398 151.95 371.3 159.352L371.307 159.345ZM377.42 123.377C376.489 123.685 375.544 123.978 374.576 124.257C372.22 116.954 369.37 109.821 366.045 102.905C369.247 96.0842 371.99 89.0564 374.254 81.869C375.969 82.3601 377.648 82.8952 379.26 83.4449C394.873 88.8103 404.387 96.7557 404.387 102.869C404.387 109.392 394.103 117.851 377.413 123.377H377.42Z" fill="#61DAFB"/>
<path id="Vector_4" d="M327.292 87.8134C330.27 87.8134 333.182 88.6967 335.658 90.3517C338.134 92.0066 340.064 94.3588 341.203 97.1107C342.342 99.8625 342.639 102.89 342.057 105.811C341.475 108.732 340.04 111.415 337.933 113.52C335.826 115.625 333.142 117.057 330.22 117.637C327.299 118.216 324.271 117.916 321.52 116.774C318.77 115.632 316.419 113.7 314.767 111.222C313.114 108.745 312.234 105.832 312.237 102.854C312.243 98.8649 313.831 95.0412 316.654 92.2225C319.477 89.4039 323.303 87.8207 327.292 87.8207" fill="#61DAFB"/>
</g>
</g>
<path id="+" d="M219.34 99.4805H225.334V104.561H219.34V111.434H213.803V104.561H207.791V99.4805H213.803V92.8008H219.34V99.4805Z" fill="#838383"/>
</g>
</svg>
